<svg xmlns="http://www.w3.org/2000/svg" width="24" height="24" viewBox="0 0 24 24"><path fill="currentColor" d="M6.099 5.918C2.736 5.918 0 8.646 0 12s2.736 6.083 6.099 6.083H17.9c3.364 0 6.1-2.73 6.1-6.083s-2.736-6.082-6.099-6.082ZM5.977 7.85c.493.012 1.02.25 1.273.623c.368.459.478 1.067.895 1.493c.56.612 1.199 1.15 1.716 1.802c.49.595.839 1.294 1.144 1.998c.124.233.125.52.31.72c.09.12.534.448.438.564c.055.12.47.286.326.402c-.194.04-.413.048-.562-.107c-.054.126-.182.06-.281.043l-.025.074c-.33.022-.576-.313-.732-.565c-.311-.168-.665-.27-.982-.446c-.019.29.045.648-.231.835c-.014.557.843.066.922.48c-.061.007-.129-.009-.178.038c-.223.217-.48-.165-.738-.007c-.346.174-.38.316-.81.352c-.023-.036-.014-.06.006-.081c.12-.14.13-.305.336-.365c-.212-.033-.39.084-.569.176c-.232.095-.23-.214-.588.017c-.04-.033-.02-.062.002-.087c.091-.11.21-.127.345-.12c-.663-.37-.975.45-1.281.043c-.092.024-.127.106-.185.165c-.05-.055-.012-.121-.01-.186c-.06-.028-.135-.041-.117-.137c-.117-.04-.2.03-.286.096c-.08-.061.053-.15.077-.213c.07-.121.23-.025.311-.112c.23-.131.552.08.816.045c.203.026.454-.182.352-.39c-.217-.277-.179-.639-.183-.97c-.027-.192-.491-.438-.626-.646c-.166-.187-.295-.404-.424-.618c-.467-.9-.32-2.058-.908-2.895c-.266.147-.612.078-.841-.119c-.124.113-.13.26-.14.417c-.296-.297-.259-.856-.021-1.186c.096-.13.212-.237.342-.332c.029-.02.039-.041.038-.074c.117-.527.576-.74 1.07-.727m12.407.46c.557 0 1.08.216 1.473.608s.61.915.61 1.47a2.06 2.06 0 0 1-.61 1.47v.001l-.902.9a2.1 2.1 0 0 1-.86.516l-.016.005l-.005.016a2.05 2.05 0 0 1-.474.731l-.902.9c-.394.392-.917.608-1.475.608s-1.08-.216-1.474-.608a2.077 2.077 0 0 1 0-2.94l.902-.9a2.06 2.06 0 0 1 .858-.514l.017-.006l.006-.016a2.1 2.1 0 0 1 .475-.733l.902-.9a2.07 2.07 0 0 1 1.474-.608m0 .897a1.18 1.18 0 0 0-.84.346l-.901.9a1.18 1.18 0 0 0-.343.924l.005.058c.033.265.15.504.338.691c.13.13.273.212.447.269a1 1 0 0 1 .014.158a.88.88 0 0 1-.26.63l-.056.056a1.96 1.96 0 0 1-.78-.48a2.06 2.06 0 0 1-.576-1.096l-.01-.058l-.046.037a1 1 0 0 0-.087.08l-.903.899a1.182 1.182 0 0 0 .84 2.019c.304 0 .607-.116.838-.346l.902-.9a1.18 1.18 0 0 0 0-1.673a1.2 1.2 0 0 0-.436-.275a1 1 0 0 1-.014-.16a.97.97 0 0 1 .29-.693a2.06 2.06 0 0 1 1.372 1.592l.01.058l.046-.038a1 1 0 0 0 .088-.08l.902-.899a1.183 1.183 0 0 0 0-1.673a1.18 1.18 0 0 0-.84-.346M8.41 14.364c-.08.309-.105.833-.506.848c-.033.177.123.244.265.187c.141-.064.208.051.256.166c.218.032.54-.073.552-.33c-.325-.187-.426-.542-.567-.87"/></svg>